<svg xmlns="http://www.w3.org/2000/svg" width="25.713" height="54.39" viewBox="0 0 25.713 54.39">
  <g id="Groupe_1453" data-name="Groupe 1453" transform="translate(-950.134 -1000.766)">
    <g id="Groupe_1452" data-name="Groupe 1452">
      <g id="Groupe_15" data-name="Groupe 15" transform="translate(951 1033.387)">
        <path id="Tracé_59" data-name="Tracé 59" d="M713.48,706.138h23.981l-6,10.384-6,10.384-6-10.384Z" transform="translate(-713.48 -706.138)" fill="#00cc81" stroke="#15797a" stroke-miterlimit="10" stroke-width="1"/>
        <path id="Tracé_61" data-name="Tracé 61" d="M779.155,773.877l-1.625,3.108-2.28-3.342-2.146,3.473-2.682-3.763" transform="translate(-763.219 -764.85)" fill="none" stroke="#15797a" stroke-miterlimit="10" stroke-width="1"/>
        <path id="Tracé_62" data-name="Tracé 62" d="M750.865,722.687l-1.626,3.108-2.28-3.342-2.146,3.473-2.682-3.763" transform="translate(-738.507 -720.135)" fill="none" stroke="#15797a" stroke-miterlimit="10" stroke-width="1"/>
        <path id="Tracé_63" data-name="Tracé 63" d="M818.98,729.609l-1.356,2.088-1.984-2.288-1.8,2.33-2.331-2.578" transform="translate(-799.112 -726.249)" fill="none" stroke="#15797a" stroke-miterlimit="10" stroke-width="1"/>
      </g>
      <g id="Groupe_16" data-name="Groupe 16" transform="translate(951 1001.266)">
        <path id="Tracé_59-2" data-name="Tracé 59" d="M713.48,706.138h23.981l-6,10.384-6,10.384-6-10.384Z" transform="translate(-713.48 -706.138)" fill="#00cc81" stroke="#15797a" stroke-miterlimit="10" stroke-width="1"/>
        <path id="Tracé_61-2" data-name="Tracé 61" d="M779.155,773.877l-1.625,3.108-2.28-3.342-2.146,3.473-2.682-3.763" transform="translate(-763.219 -764.85)" fill="none" stroke="#15797a" stroke-miterlimit="10" stroke-width="1"/>
        <path id="Tracé_62-2" data-name="Tracé 62" d="M750.865,722.687l-1.626,3.108-2.28-3.342-2.146,3.473-2.682-3.763" transform="translate(-738.507 -720.135)" fill="none" stroke="#15797a" stroke-miterlimit="10" stroke-width="1"/>
        <path id="Tracé_63-2" data-name="Tracé 63" d="M818.98,729.609l-1.356,2.088-1.984-2.288-1.8,2.33-2.331-2.578" transform="translate(-799.112 -726.249)" fill="none" stroke="#15797a" stroke-miterlimit="10" stroke-width="1"/>
      </g>
    </g>
  </g>
</svg>
