<svg xmlns="http://www.w3.org/2000/svg" xmlns:xlink="http://www.w3.org/1999/xlink" width="602" height="602" viewBox="0 0 602 602">
  <defs>
    <filter id="Ellipse_22" x="0" y="0" width="602" height="602" filterUnits="userSpaceOnUse">
      <feOffset dy="3" input="SourceAlpha"/>
      <feGaussianBlur stdDeviation="3" result="blur"/>
      <feFlood flood-opacity="0.161"/>
      <feComposite operator="in" in2="blur"/>
      <feComposite in="SourceGraphic"/>
    </filter>
  </defs>
  <g transform="matrix(1, 0, 0, 1, 0, 0)" filter="url(#Ellipse_22)">
    <circle id="Ellipse_22-2" data-name="Ellipse 22" cx="292" cy="292" r="292" transform="translate(9 6)" fill="#c3dfff"/>
  </g>
  <g id="Groupe_23" data-name="Groupe 23" transform="translate(57.221 66.333)">
    <g id="Groupe_1" data-name="Groupe 1" transform="translate(0 0)">
      <path id="Tracé_1" data-name="Tracé 1" d="M1105.257,125.008a14.337,14.337,0,0,1,4.469-7.959c12.018-12,24.064-23.979,36.017-36.047a20.664,20.664,0,0,1,18.706-6.16c2.817,1.573,6.027,2.364,8.426,4.779,13.033,13.113,26.155,26.137,39.188,39.25,3.124,3.143,4.17,6.919,2.558,11.231-1.736,4.644-5.192,6.989-10.014,7.381-1.95.158-3.924.019-5.888.041-7.754.085-6.912-.878-6.915,6.695q-.031,82.954,0,165.908a192.565,192.565,0,0,1-4.3,41.764c-12.828,58.049-45.027,102.475-95.388,133.79-3.488,2.169-6.768,5.271-11.338,5.351,3.112-10.722-1.047-18.695-8.853-25.94-8.924-8.284-17.2-17.267-25.757-25.945,2.125-1.185,4.224-2.418,6.378-3.547,26.539-13.914,46.626-34.217,60.518-60.757,12.866-24.578,16.752-50.908,15.665-78.256q.039-66.861.078-133.721c.048-5.05.128-10.1.14-15.149.021-10.161.006-10.161-10.334-10.2C1109.755,137.491,1105.907,133.887,1105.257,125.008Z" transform="translate(-759.687 -74.563)" fill="#6b70d6"/>
      <path id="Tracé_2" data-name="Tracé 2" d="M500.533,392.773c-8.539-8.577-17.17-17.063-25.587-25.759-6.7-6.926-4.4-17.687,4.192-19.605,2.968-.663,6.184-.223,9.288-.264,7.192-.094,6.079.741,6.257-6.3a196.971,196.971,0,0,1,29.477-99.575c27.337-44.572,66.292-74.438,116.186-90,4.483-1.4,9.128-2.28,13.7-3.4-3.6,3.744-7.158,7.53-10.807,11.225-9.773,9.9-9.8,20.524-.079,30.338q10.3,10.39,20.521,20.857c-41.121,11.082-71.362,35.723-91.051,73.36-8.9,17.013-13.39,35.324-15,54.378-.768,9.113-.689,9.12,8.326,9.122.655,0,1.31.025,1.963,0,5.561-.242,9.969,1.548,12.255,7.005,2.245,5.36.027,9.374-3.753,13.112-11.4,11.278-22.774,22.587-34,34.041-3.6,3.676-7.441,6.788-12.311,8.526-8.046,1.21-14.5-1.6-19.895-7.547C507.182,398.934,503.774,395.93,500.533,392.773Z" transform="translate(-471.051 -111.35)" fill="#6b70d6"/>
      <path id="Tracé_3" data-name="Tracé 3" d="M530.237,639.522c3.24,3.157,6.649,6.161,9.684,9.5,5.4,5.946,11.849,8.757,19.894,7.547,8.585.055,17.173.024,25.756.2a21.088,21.088,0,0,0,13.612-4.275c1.761,1.17,2.23,3.179,3.109,4.9A141.258,141.258,0,0,0,650.23,711.48c22.426,14.989,47.2,22.74,74.122,23.8,2.778.109,5.043-.009,4.13-3.779.047-2.107.131-4.213.136-6.321.023-9.971,4.064-13.817,13.984-13.278a23.808,23.808,0,0,1,6.629,4.851c11.737,11.823,23.564,23.555,35.307,35.372,9.354,9.413,9.342,19.8,0,29.179-11.755,11.8-23.575,23.545-35.311,35.369a24.191,24.191,0,0,1-6.61,4.87c-9.831.523-13.981-3.322-14-12.97-.016-10.166-.021-10.073-9.888-10.6A204.989,204.989,0,0,1,530.7,644.344,30.244,30.244,0,0,1,530.237,639.522Z" transform="translate(-500.755 -358.1)" fill="#00cc81"/>
      <path id="Tracé_4" data-name="Tracé 4" d="M829.747,181.428Q819.49,171,809.228,160.574c-9.724-9.814-9.695-20.441.079-30.338,3.649-3.7,7.207-7.481,10.807-11.225,7.864-7.757,15.831-15.413,23.545-23.315,3.793-3.885,7.935-6.088,13.44-5.078,6.057,2.862,8.519,7.683,7.917,14.272-.177,1.944.11,3.929-.057,5.874-.226,2.636.951,3.318,3.415,3.356,4.23.065,8.452.509,12.68.761a191.4,191.4,0,0,1,57.932,13.052c25.278,9.78,47.519,24.37,67.258,42.865q-.039,66.86-.077,133.72c-.819-.526-.677-1.384-.776-2.174-3.386-26.981-13.225-51.309-30.4-72.452-20.521-25.267-46.568-41.885-78.447-49.091-7.4-2.72-15.228-2.952-22.927-3.717-8.6-.854-8.9-.591-8.544,8.04.281,6.817-1.411,12.17-7.988,15.172-5.458.991-9.738-1-13.346-5.042-1.821-2.036-3.933-3.812-5.913-5.705A47.64,47.64,0,0,0,829.747,181.428Z" transform="translate(-637.122 -82.497)" fill="#00cc81"/>
      <path id="Tracé_5" data-name="Tracé 5" d="M1099.888,491.173c4.569-.08,7.849-3.182,11.337-5.351,50.361-31.315,82.561-75.74,95.388-133.79a192.627,192.627,0,0,0,4.3-41.764q-.062-82.954-.006-165.908c0-7.573-.837-6.61,6.916-6.695,1.963-.021,3.937.118,5.887-.041,4.823-.392,8.279-2.738,10.015-7.381,1.612-4.312.566-8.088-2.558-11.231-13.033-13.112-26.156-26.136-39.187-39.25-2.4-2.414-5.61-3.206-8.427-4.779,9.324-.052,18.647-.166,27.971-.13a18.339,18.339,0,0,1,13.11,5.824q18.615,18.524,37.149,37.126c3.619,3.631,5.333,7.846,3.178,12.91-2.211,5.2-6.417,6.965-11.813,6.982-10.826.033-10.826.106-10.826,10.9,0,53.833.153,107.666-.035,161.5-.329,93.881-63.227,175.088-153.248,198.2a11.088,11.088,0,0,1-4.8.641c4.217-6.174,10.725-10.326,14.727-16.69l.967-1.1Z" transform="translate(-778.793 -74.706)" fill="#4e5493"/>
      <path id="Tracé_6" data-name="Tracé 6" d="M1034.886,847.955c-4,6.364-10.509,10.517-14.727,16.69l.051-.05-1.243.739c-8.516,7.324-16.052,15.653-23.989,23.566-3.574,3.563-7.441,5.38-12.559,5.205-8.608-.294-17.23-.181-25.845-.239a24.177,24.177,0,0,0,6.612-4.87c11.735-11.824,23.555-23.565,35.311-35.369,9.338-9.377,9.35-19.766,0-29.179-11.742-11.817-23.57-23.549-35.307-35.372a23.78,23.78,0,0,0-6.631-4.851c4.412-.058,8.856.2,13.233-.235,12.239-1.209,23.455.151,31.407,11.013,8.558,8.679,16.833,17.662,25.757,25.946,7.8,7.245,11.964,15.218,8.853,25.94l.048-.033C1035.139,846.878,1034.982,847.39,1034.886,847.955Z" transform="translate(-714.712 -430.421)" fill="#0d514f"/>
      <path id="Tracé_7" data-name="Tracé 7" d="M1061.8,170.9c-19.739-18.5-41.98-33.085-67.259-42.865A191.4,191.4,0,0,0,936.61,114.98c-4.228-.252-8.45-.7-12.68-.761-2.464-.038-3.641-.72-3.415-3.356.167-1.946-.12-3.931.057-5.874.6-6.589-1.86-11.411-7.917-14.272,9.313-.048,18.628-.228,27.94-.1,6.829.093,11.045,4.627,11.4,11.529.2,3.867-1.709,8.945.825,11.247,2.145,1.947,7.114.775,10.832,1a213.152,213.152,0,0,1,74.6,18.65c.65,8.88,4.5,12.484,13.357,12.513,10.34.034,10.355.034,10.334,10.2C1061.929,160.8,1061.85,165.848,1061.8,170.9Z" transform="translate(-692.679 -82.597)" fill="#0d514f"/>
      <path id="Tracé_8" data-name="Tracé 8" d="M1081.849,946.912l1.243-.739C1082.963,946.9,1082.419,946.928,1081.849,946.912Z" transform="translate(-777.593 -511.999)" fill="#2487c3"/>
      <path id="Tracé_9" data-name="Tracé 9" d="M876.3,538.187c-7.952-10.862-19.168-12.223-31.407-11.013-4.377.433-8.821.177-13.232.235-9.918-.539-13.958,3.307-13.981,13.278,0,2.107-.089,4.214-.135,6.321a23.27,23.27,0,0,1-2.894-.458c-52.858-15.15-87.139-48.99-102.446-101.9,5.228-5.385,10.516-10.712,15.661-16.175,3.278-3.48,4.459-7.565,2.479-12.168-2.035-4.734-5.8-6.852-10.838-6.9-2.777-.027-5.567-.18-8.326.039-2.849.226-3.581-.876-3.473-3.607a140.432,140.432,0,0,1,4.572-31.91c11.84-43.011,38.211-73.884,78.243-93.268,1.98,1.893,4.093,3.669,5.913,5.7,3.609,4.037,7.887,6.033,13.347,5.042,9.27.05,18.54.219,27.807.108,6.84-.081,11.208-4.53,11.5-11.314.118-2.76.105-5.525.152-8.288,31.879,7.206,57.926,23.824,78.447,49.091,17.172,21.143,27.01,45.471,30.4,72.452.1.791-.043,1.648.776,2.174,1.087,27.348-2.8,53.678-15.664,78.257-13.893,26.54-33.98,46.843-60.518,60.757C880.525,535.769,878.426,537,876.3,538.187Z" transform="translate(-589.817 -173.605)" fill="#fefefe"/>
      <path id="Tracé_10" data-name="Tracé 10" d="M731.261,281.29c-40.032,19.384-66.4,50.257-78.243,93.268a140.471,140.471,0,0,0-4.572,31.91c-.107,2.732.625,3.834,3.474,3.608,2.759-.219,5.55-.067,8.326-.039,5.039.049,8.8,2.167,10.838,6.9,1.979,4.6.8,8.688-2.479,12.168-5.146,5.463-10.434,10.79-15.662,16.176-8.654,7.1-16,15.547-23.959,23.354a21.088,21.088,0,0,1-13.612,4.276c-8.583-.174-17.17-.143-25.755-.2,4.871-1.738,8.709-4.85,12.311-8.526,11.224-11.454,22.6-22.763,34-34.041,3.78-3.738,6-7.752,3.753-13.112-2.286-5.457-6.694-7.247-12.255-7.005-.653.029-1.309,0-1.963,0-9.016,0-9.095-.009-8.326-9.122,1.606-19.054,6.1-37.365,15-54.378,19.688-37.637,49.929-62.278,91.05-73.36A47.586,47.586,0,0,1,731.261,281.29Z" transform="translate(-530.555 -174.239)" fill="#4e5493"/>
      <path id="Tracé_11" data-name="Tracé 11" d="M668.646,642.038c7.964-7.807,15.305-16.254,23.959-23.354,15.307,52.912,49.588,86.751,102.447,101.9a23.3,23.3,0,0,0,2.893.457c.913,3.77-1.352,3.888-4.13,3.779-26.921-1.061-51.7-8.812-74.122-23.8a141.255,141.255,0,0,1-47.938-54.086C670.877,645.218,670.407,643.208,668.646,642.038Z" transform="translate(-570.218 -347.642)" fill="#0d514f"/>
      <path id="Tracé_12" data-name="Tracé 12" d="M952.094,267.837c-.047,2.763-.035,5.528-.153,8.288-.291,6.784-4.659,11.233-11.5,11.315-9.267.11-18.537-.059-27.807-.109,6.576-3,8.268-8.354,7.987-15.172-.357-8.631-.06-8.894,8.543-8.04C936.865,264.885,944.694,265.118,952.094,267.837Z" transform="translate(-692.669 -169.533)" fill="#0d514f"/>
      <path id="Tracé_13" data-name="Tracé 13" d="M1113.8,911.659c.1-.565.253-1.077.968-1.1Z" transform="translate(-793.63 -494.125)" fill="#5ad6fe"/>
    </g>
    <g id="Groupe_2" data-name="Groupe 2" transform="translate(158.429 154.638)">
      <path id="Tracé_14" data-name="Tracé 14" d="M891.414,385h4.77c1.331.567,2.771.427,4.158.616a78.663,78.663,0,0,1,20.912,5.6,16.21,16.21,0,0,1-11.526,7.66c-1.822.307-3.691-.008-5.509.559-5.994,1.87-7.66,8.451-3.171,12.787a14.09,14.09,0,0,0,2.519,1.919c3.742,2.248,7.971,3.4,11.912,5.209,5.052,2.317,9.852,4.961,13.293,9.506,2.254,2.977,1.12,7.521-2.4,8.528-4.3,1.228-8.744,1.607-13.112.058-3.556-1.262-6.427-3.663-9.4-5.855-4.291-3.16-8.943-5.406-14.359-5.14a34.644,34.644,0,0,0-17.843,5.989c-7.618,5.126-9.238,13.532-4.246,21.23a23.471,23.471,0,0,0,10.864,8.956,5.539,5.539,0,0,1,3.523,6.257,43.835,43.835,0,0,0-.928,13.544c.6,6.614,2.078,12.952,5.385,18.758,2.5,4.392,5.722,8.227,10.837,9.44a24.139,24.139,0,0,0,20.372-3.94c4.871-3.495,7.54-8.641,9.876-13.97,2.851-6.5,4.992-13.269,7.432-19.924.883-2.409,2.32-4.043,4.891-4.415s4.322,1.037,5.738,2.982a13.879,13.879,0,0,0,2.649,2.724c4.236,3.347,9,3.512,14.006,2.373,3.214-.732,6.17-2.165,9.229-3.319a79.782,79.782,0,0,1-3.131,16.636,81.037,81.037,0,0,1-26.359,39.577,74.027,74.027,0,0,1-18.158,11.233c-1.933-4.345-5.485-6.723-9.883-7.977-4.678-1.334-9.5-1.337-14.312-1.29a71.286,71.286,0,0,1-12.159-.812c-6.453-1.05-12.282-3.8-18.07-6.656a38.129,38.129,0,0,0-9.3-3.537c-6.686-1.343-12.691-.1-17.788,4.642-.1,0-.2.008-.3.019-2.126-2.4-4.409-4.666-6.4-7.193a66.522,66.522,0,0,1-7.146-10.564c-.021-.118-.041-.235-.062-.352a32.907,32.907,0,0,0,1.852-11.66,23.288,23.288,0,0,1,3.9-13.5c6.813-10.172,7.484-20.841,2.558-31.948-1.594-3.6-2.979-7.246-3.046-11.241-.09-5.295-.729-10.437-3.776-14.98a3.564,3.564,0,0,1,.725-1.564,85.624,85.624,0,0,1,14-16.277A81.612,81.612,0,0,1,861.6,393.905a79.934,79.934,0,0,1,23.044-7.68C886.9,385.84,889.272,386.017,891.414,385Z" transform="translate(-808.722 -385.001)" fill="#6b70d6"/>
      <path id="Tracé_15" data-name="Tracé 15" d="M1007.894,479.394c-3.059,1.154-6.015,2.587-9.229,3.319-5,1.139-9.77.975-14.006-2.372a13.9,13.9,0,0,1-2.649-2.724c-1.417-1.946-3.162-3.354-5.738-2.982s-4.008,2.006-4.891,4.415c-2.439,6.655-4.581,13.424-7.432,19.924-2.336,5.329-5,10.476-9.875,13.971a24.141,24.141,0,0,1-20.372,3.94c-5.115-1.214-8.335-5.048-10.837-9.441-3.307-5.806-4.784-12.144-5.385-18.758a43.829,43.829,0,0,1,.928-13.544,5.54,5.54,0,0,0-3.523-6.257,23.474,23.474,0,0,1-10.864-8.956c-4.992-7.7-3.372-16.1,4.246-21.23a34.644,34.644,0,0,1,17.843-5.988c5.417-.266,10.069,1.98,14.36,5.14,2.976,2.192,5.848,4.593,9.4,5.855,4.368,1.55,8.813,1.171,13.112-.058,3.524-1.007,4.659-5.551,2.4-8.528-3.441-4.545-8.241-7.188-13.293-9.506-3.942-1.808-8.171-2.961-11.913-5.209a14.081,14.081,0,0,1-2.518-1.919c-4.489-4.336-2.823-10.918,3.17-12.787,1.818-.567,3.688-.251,5.51-.559a16.2,16.2,0,0,0,11.523-7.659c.541.2,1.1.379,1.626.613a81.592,81.592,0,0,1,47.757,62.048c.329,2.058.281,4.173.925,6.182v13.04A1.445,1.445,0,0,1,1007.894,479.394Z" transform="translate(-845.339 -391.264)" fill="#00cc81"/>
      <path id="Tracé_16" data-name="Tracé 16" d="M937.65,676.386a71.728,71.728,0,0,1-17.07,5.632,62.288,62.288,0,0,1-9.228,1.316c-.305.019-.647-.041-.829.315h-4.134c-.106-.221-.212-.227-.318,0h-.636c-.212-.331-.424-.333-.636,0h-.636c-.054-.571-.456-.61-.911-.638a59.1,59.1,0,0,1-10.386-1.83,80.334,80.334,0,0,1-28.342-13.256,63.142,63.142,0,0,1-8.387-7.17c5.1-4.738,11.1-5.985,17.788-4.642a38.129,38.129,0,0,1,9.3,3.537c5.787,2.856,11.616,5.607,18.07,6.656a71.32,71.32,0,0,0,12.159.812c4.811-.047,9.634-.045,14.312,1.29C932.164,669.664,935.717,672.042,937.65,676.386Z" transform="translate(-822.743 -520.81)" fill="#00cc81"/>
      <path id="Tracé_17" data-name="Tracé 17" d="M805.071,548.38a78.6,78.6,0,0,1-13.726-29.085,66,66,0,0,1-1.932-11.983c-.016-.264-.024-.531-.315-.663V493.291c.664-2.06.59-4.229.951-6.337a79.321,79.321,0,0,1,14.835-35.1,19.2,19.2,0,0,1,4.9,5.155c-.79,1.371-1.61,2.726-2.366,4.115a79.2,79.2,0,0,0-9.648,32.644,80.574,80.574,0,0,0,.917,20.192,85.777,85.777,0,0,0,8.985,25.4c.226.418.4.875.9,1.053.021.117.041.234.062.351A28.708,28.708,0,0,1,805.071,548.38Z" transform="translate(-789.098 -418.551)" fill="#0d514f"/>
      <path id="Tracé_18" data-name="Tracé 18" d="M825.689,423.455a19.2,19.2,0,0,0-4.9-5.155,75.7,75.7,0,0,1,17.219-17.406A81.624,81.624,0,0,1,874.965,385.7a29.535,29.535,0,0,0,5.1-.7h7.633c-2.142,1.016-4.513.839-6.769,1.224a79.934,79.934,0,0,0-23.044,7.68,81.618,81.618,0,0,0-17.191,11.785,85.641,85.641,0,0,0-14,16.277,3.556,3.556,0,0,0-.725,1.564C825.874,423.507,825.781,423.481,825.689,423.455Z" transform="translate(-805.002 -385.001)" fill="#4e5493"/>
      <path id="Tracé_19" data-name="Tracé 19" d="M852.229,665.944a63.087,63.087,0,0,0,8.387,7.169,80.341,80.341,0,0,0,28.343,13.257,59.087,59.087,0,0,0,10.385,1.83c.454.029.856.067.91.638h-6.679c-1.944-.663-4-.6-6-.918a80.953,80.953,0,0,1-37.18-16.072c-.708-.545-1.363-1.157-2.042-1.738a34.764,34.764,0,0,1,3.575-4.147C852.026,665.952,852.127,665.946,852.229,665.944Z" transform="translate(-818.835 -525.998)" fill="#0d514f"/>
      <path id="Tracé_20" data-name="Tracé 20" d="M953.826,711.653c.212-.333.424-.331.636,0Z" transform="translate(-871.77 -548.814)" fill="#89bf54"/>
      <path id="Tracé_21" data-name="Tracé 21" d="M956.38,711.735c.106-.227.212-.221.318,0Z" transform="translate(-873.052 -548.895)" fill="#89bf54"/>
      <path id="Tracé_22" data-name="Tracé 22" d="M818.279,462.2q.138.04.277.076c3.047,4.543,3.686,9.685,3.775,14.98.067,3.995,1.452,7.646,3.046,11.241,4.926,11.107,4.254,21.776-2.558,31.948a23.288,23.288,0,0,0-3.9,13.5,32.912,32.912,0,0,1-1.852,11.66c-.5-.178-.676-.635-.9-1.053a85.781,85.781,0,0,1-8.986-25.4,80.585,80.585,0,0,1-.917-20.192,79.2,79.2,0,0,1,9.648-32.644C816.669,464.924,817.489,463.569,818.279,462.2Z" transform="translate(-797.592 -423.744)" fill="#00cc81"/>
      <path id="Tracé_23" data-name="Tracé 23" d="M838.28,648.091a34.7,34.7,0,0,0-3.575,4.146,71.645,71.645,0,0,1-13.542-14.282,28.7,28.7,0,0,0,3.567-7.622,66.5,66.5,0,0,0,7.146,10.565C833.871,643.425,836.154,645.686,838.28,648.091Z" transform="translate(-805.191 -508.126)" fill="#4e5493"/>
    </g>
  </g>
</svg>
